<svg id="f8fc85bc-ca1e-4c46-9db3-824e0e88a3ac" data-name="200520" xmlns="http://www.w3.org/2000/svg" xmlns:xlink="http://www.w3.org/1999/xlink" viewBox="0 0 99.21 160.16"><defs><linearGradient id="b8957a75-a07c-439f-a154-dc24b5cbebc5" x1="216.22" y1="232.26" x2="216.22" y2="218.3" gradientUnits="userSpaceOnUse"><stop offset="0" stop-color="#749bc2" stop-opacity="0"/><stop offset="0.04" stop-color="#6b96be" stop-opacity="0.14"/><stop offset="0.19" stop-color="#4f84b2" stop-opacity="0.6"/><stop offset="0.3" stop-color="#3d79aa" stop-opacity="0.89"/><stop offset="0.35" stop-color="#3675a7"/></linearGradient><clipPath id="a2570ef7-77a8-4ccb-b283-b01e70e25a3c" transform="translate(-167.13 -99.24)"><path id="a46b89c6-71c9-43f9-97f9-3b9ed91ee3d3" data-name="SVGID" d="M266.34,107,258,99.21H167.13v15.58h20.54a33.25,33.25,0,0,0,15.87,49.3L208.72,149A17.06,17.06,0,1,1,221,149l-5.35,10.18,10.35,5a33.26,33.26,0,0,0,15.83-49.29H258Z" style="fill:none"/></clipPath></defs><path d="M176.52,259.1v-8.75a1.72,1.72,0,0,0-.09-.58l-3.77-13.83h2.15c1.07,4.29,2.37,9.45,2.72,11.48h0c.39-2.12,1.72-7.4,2.71-11.48h2.07l-3.8,13.95a3,3,0,0,0-.06.64v8.57Z" transform="translate(-167.13 -99.24)" style="fill:#c79f5d"/><path d="M191.37,241.52V253.4c0,4-1.45,6-4.41,6-3.16,0-4.24-2.31-4.24-6V241.53c0-3.81,1.5-5.89,4.37-5.89C190.12,235.64,191.37,238.05,191.37,241.52Zm-6.65-.06v12.11c0,2.76.89,3.83,2.33,3.83s2.32-1,2.32-3.95v-12c0-2.6-.81-3.82-2.34-3.82S184.72,238.81,184.72,241.46Z" transform="translate(-167.13 -99.24)" style="fill:#c79f5d"/><path d="M193.39,235.94h1.94v11.34h0c.87-2.14,3.2-7.86,4.58-11.34h2.14l-4,9.24,4.36,13.92h-2.12l-3.54-11.61-1.47,3.26v8.35h-1.94Z" transform="translate(-167.13 -99.24)" style="fill:#c79f5d"/><path d="M211.16,241.52V253.4c0,4-1.45,6-4.42,6-3.15,0-4.23-2.31-4.23-6V241.53c0-3.81,1.5-5.89,4.37-5.89C209.91,235.64,211.16,238.05,211.16,241.52Zm-6.65-.06v12.11c0,2.76.89,3.83,2.33,3.83s2.32-1,2.32-3.95v-12c0-2.6-.81-3.82-2.34-3.82S204.51,238.81,204.51,241.46Z" transform="translate(-167.13 -99.24)" style="fill:#c79f5d"/><path d="M213.18,235.94h2v9.71h4.49v-9.71h2V259.1h-2V247.68h-4.49V259.1h-2Z" transform="translate(-167.13 -99.24)" style="fill:#c79f5d"/><path d="M225.88,251.43l-1,7.67h-2l3.4-23.16h2.8l3.54,23.16h-2.05l-1.12-7.67Zm3.28-2c-.78-5.37-1.31-9.36-1.5-11.45h-.08c-.08,1.76-.84,7-1.43,11.45Z" transform="translate(-167.13 -99.24)" style="fill:#c79f5d"/><path d="M243.92,249.19c0-4.32.07-8.82.13-11.25h0c-.52,3.85-2.19,14.24-3.34,21.16h-2c-.87-5.94-2.61-17.07-3.11-21.18h-.06c.06,2.69.17,7.94.17,11.91v9.27H233.9V235.94h2.89c1.21,7.07,2.69,16,3,18.89h0c.32-2.79,2-12.24,3.2-18.89h2.86V259.1h-1.92Z" transform="translate(-167.13 -99.24)" style="fill:#c79f5d"/><path d="M250.14,251.43l-1,7.67h-2l3.4-23.16h2.8l3.54,23.16H254.8l-1.12-7.67Zm3.28-2c-.78-5.37-1.31-9.36-1.5-11.45h-.08c-.08,1.76-.84,7-1.43,11.45Z" transform="translate(-167.13 -99.24)" style="fill:#c79f5d"/><path d="M176.18,171.15v27.92h-2.24V171.15Z" transform="translate(-167.13 -99.24)" style="fill:#bf9d5a"/><path d="M185.23,171.15h17v2.06H187.47v10.45h13.81v2.06H187.47v13.35h-2.24Z" transform="translate(-167.13 -99.24)" style="fill:#bf9d5a"/><path d="M211.05,189.48l-3.52,9.59h-2.27l10.23-27.92h2.66l10.67,27.92h-2.44l-3.6-9.59Zm11-2c-3.09-8.24-4.67-12.23-5.24-14.12h0c-.67,2.13-2.46,7.06-5,14.12Z" transform="translate(-167.13 -99.24)" style="fill:#bf9d5a"/><path d="M255.56,191.59c-1.31,4.44-4.59,7.8-10.52,7.8-8,0-12.26-6.38-12.26-14.24,0-7.54,4.15-14.4,12.31-14.4,6,0,9.6,3.38,10.51,8h-2.24c-1.26-3.6-3.59-6-8.4-6-6.89,0-9.78,6.3-9.78,12.3s2.84,12.22,9.94,12.22c4.54,0,6.83-2.35,8.2-5.74Z" transform="translate(-167.13 -99.24)" style="fill:#bf9d5a"/><path d="M173.88,227.15V227c0-3.27,2.75-7.29,7.93-11.32,4.49-3.5,5.63-4.56,5.63-7.82,0-2.83-1.57-5.26-5.29-5.26-3.53,0-5.37,1.7-6,5.46H174c.51-4.35,3.24-7.41,8.12-7.41,5.29,0,7.54,3.61,7.54,7.09,0,4-1.69,5.38-6.51,9.32-3.82,3.1-6.13,5.57-6.91,8.07h14.49l-.37,2Z" transform="translate(-167.13 -99.24)" style="fill:#bf9d5a"/><path d="M217.18,227.15V227c0-3.27,2.75-7.29,7.94-11.32,4.48-3.5,5.63-4.56,5.63-7.82,0-2.83-1.57-5.26-5.29-5.26-3.54,0-5.37,1.7-6,5.46h-2.09c.51-4.35,3.24-7.41,8.13-7.41,5.28,0,7.54,3.61,7.54,7.09,0,4-1.7,5.38-6.52,9.32-3.82,3.1-6.13,5.57-6.91,8.07h14.49l-.36,2Z" transform="translate(-167.13 -99.24)" style="fill:#bf9d5a"/><path d="M239.4,207c.43-3.2,2.72-6.34,7.66-6.34s7.3,3.21,7.3,6.54a5.42,5.42,0,0,1-3.63,5.44v.08a6.51,6.51,0,0,1,4.81,6.75c0,4.37-2.76,8.14-8.56,8.14-5.33,0-8-3.45-8.44-6.93h2.12a6.29,6.29,0,0,0,6.47,5c4.43,0,6.16-3,6.16-6.12,0-4.11-2.7-5.76-6.51-5.76h-1.56v-1.87h1.24c3.93,0,5.69-1.65,5.69-4.71,0-2.7-1.88-4.59-5.18-4.59s-4.9,1.82-5.52,4.39Z" transform="translate(-167.13 -99.24)" style="fill:#bf9d5a"/><circle cx="36.54" cy="114.15" r="11.25" style="fill:#e60013"/><path d="M177,232.26c15.36-1.65,26.83-5.25,32.4-14h4.33c8.54,11.14,25.55,12.16,41.68,14Z" transform="translate(-167.13 -99.24)" style="fill:url(#b8957a75-a07c-439f-a154-dc24b5cbebc5)"/><g style="clip-path:url(#a2570ef7-77a8-4ccb-b283-b01e70e25a3c)"><path d="M239.15,111.38h27.19v-2H237.26q1,1,1.89,2Z" transform="translate(-167.13 -99.24)" style="fill:#e60013"/><path d="M266.34,114.76v-2H240.26c.51.65,1,1.32,1.45,2Z" transform="translate(-167.13 -99.24)" style="fill:#e60013"/><path d="M216.73,100.19l.51,0c.52,0,1,.09,1.55.16l.42,0a32.3,32.3,0,0,1,4,.81h43.17v-2h-51.6v.88C215.41,100.12,216.07,100.15,216.73,100.19Z" transform="translate(-167.13 -99.24)" style="fill:#e60013"/><path d="M229.17,103.56c.65.34,1.3.69,1.93,1.07h35.24v-2H227.13c.68.29,1.36.6,2,.93Z" transform="translate(-167.13 -99.24)" style="fill:#e60013"/><path d="M234.52,107c.43.34.85.68,1.26,1h30.56v-2H233.21c.44.31.88.63,1.31,1Z" transform="translate(-167.13 -99.24)" style="fill:#e60013"/><path d="M184.2,133.08c0-17.11,13.7-31,30.54-31v-1.93c-.66,0-1.32,0-2,.07l-.51,0c-.52,0-1,.09-1.56.16l-.41,0a32.85,32.85,0,0,0-4,.81h0a31.78,31.78,0,0,0-3.95,1.37c-.69.29-1.36.6-2,.93h0c-.66.34-1.31.69-1.94,1.07s-1.42.88-2.1,1.37c-.45.31-.89.63-1.31,1h0c-.42.34-.84.68-1.25,1s-1,.89-1.48,1.36q-1,1-1.89,2c-.39.45-.76.9-1.12,1.37h0c-.5.65-1,1.32-1.45,2a33.17,33.17,0,0,0-5.49,18.32c0,18.17,14.56,33,32.46,33v-1.93C197.9,164.11,184.2,150.19,184.2,133.08Z" transform="translate(-167.13 -99.24)" style="fill:#e60013"/><path d="M187.54,133.08a27.42,27.42,0,0,1,27.2-27.58v-1.92a29.5,29.5,0,0,0,0,59v-1.92A27.42,27.42,0,0,1,187.54,133.08Z" transform="translate(-167.13 -99.24)" style="fill:#e60013"/><path d="M190.87,133.08A24,24,0,0,1,214.74,109V107a26,26,0,0,0,0,52.09V157.2A24,24,0,0,1,190.87,133.08Z" transform="translate(-167.13 -99.24)" style="fill:#e60013"/><path d="M194.2,133.08a20.63,20.63,0,0,1,20.54-20.66v-1.93a22.59,22.59,0,0,0,0,45.18v-1.93A20.63,20.63,0,0,1,194.2,133.08Z" transform="translate(-167.13 -99.24)" style="fill:#e60013"/><path d="M197.54,133.08a17.23,17.23,0,0,1,17.2-17.21V114a19.13,19.13,0,1,0,0,38.26v-1.92A17.23,17.23,0,0,1,197.54,133.08Z" transform="translate(-167.13 -99.24)" style="fill:#e60013"/><path d="M206.31,101.25a32.85,32.85,0,0,1,4-.81,32.85,32.85,0,0,0-4,.81Z" transform="translate(-167.13 -99.24)"/><path d="M223.17,101.25a32.3,32.3,0,0,0-4-.81l-.42,0c-.51-.07-1-.12-1.55-.16l-.51,0c-.66,0-1.32-.07-2-.07v1.93c16.84,0,30.54,13.92,30.54,31s-13.7,31-30.54,31V166c17.9,0,32.46-14.79,32.46-33a33.09,33.09,0,0,0-5.49-18.32c-.45-.69-.94-1.36-1.45-2-.36-.47-.73-.92-1.11-1.37q-.9-1-1.89-2c-.48-.47-1-.92-1.48-1.36s-.83-.7-1.26-1h0c-.43-.34-.87-.66-1.31-1-.68-.49-1.39-.94-2.11-1.37s-1.28-.73-1.93-1.07h0c-.66-.33-1.34-.64-2-.93a31.36,31.36,0,0,0-4-1.37Z" transform="translate(-167.13 -99.24)" style="fill:#dbd6cc"/><path d="M243.87,133.08a29.34,29.34,0,0,0-29.13-29.5v1.92a27.58,27.58,0,0,1,0,55.16v1.92A29.34,29.34,0,0,0,243.87,133.08Z" transform="translate(-167.13 -99.24)" style="fill:#dbd6cc"/><path d="M240.54,133.08A26,26,0,0,0,214.74,107V109a24.12,24.12,0,0,1,0,48.24v1.92A26,26,0,0,0,240.54,133.08Z" transform="translate(-167.13 -99.24)" style="fill:#dbd6cc"/><path d="M237.21,133.08a22.55,22.55,0,0,0-22.47-22.59v1.93a20.66,20.66,0,0,1,0,41.32v1.93A22.56,22.56,0,0,0,237.21,133.08Z" transform="translate(-167.13 -99.24)" style="fill:#dbd6cc"/><path d="M233.87,133.08A19.15,19.15,0,0,0,214.74,114v1.92a17.21,17.21,0,0,1,0,34.42v1.92A19.15,19.15,0,0,0,233.87,133.08Z" transform="translate(-167.13 -99.24)" style="fill:#dbd6cc"/><path d="M167.13,101.25h39.18a32.85,32.85,0,0,1,4-.81l.41,0c.52-.07,1-.12,1.56-.16l.51,0c.66,0,1.32-.07,2-.07v-.88H167.13Z" transform="translate(-167.13 -99.24)" style="fill:#dbd6cc"/><path d="M167.13,102.62v2h31.25c.63-.38,1.28-.73,1.94-1.07h0c.66-.33,1.33-.64,2-.93H167.13Z" transform="translate(-167.13 -99.24)" style="fill:#dbd6cc"/><path d="M167.13,106v2h26.58c.41-.36.83-.7,1.25-1h0c.42-.34.86-.66,1.31-1H167.13Z" transform="translate(-167.13 -99.24)" style="fill:#dbd6cc"/><path d="M167.13,109.37v2h23.21q.9-1,1.89-2h-25.1Z" transform="translate(-167.13 -99.24)" style="fill:#dbd6cc"/><path d="M167.13,114.76h20.64c.46-.69.95-1.36,1.45-2H167.13Z" transform="translate(-167.13 -99.24)" style="fill:#dbd6cc"/></g></svg>